<svg width="1728" height="431" viewBox="0 0 1728 431" fill="none" xmlns="http://www.w3.org/2000/svg">
<path fill-rule="evenodd" clip-rule="evenodd" d="M1767.33 172.624C1777.42 177.401 1786.53 182.347 1794.39 187.125L1767.33 231.624C1777.42 236.401 1786.53 241.347 1794.39 246.125L1742.43 331.571C1720.39 318.168 1684.21 303.506 1649.64 302.041C1617.62 300.683 1590.9 310.111 1571.89 340.725C1548.32 378.679 1518.78 405.578 1483.5 419.612C1448.28 433.623 1412.56 432.733 1380.27 424.477C1318.16 408.592 1261.28 363.616 1221.14 324.782C1187.65 292.38 1131.33 254.57 1064.82 241.395C1000.67 228.688 924.045 238.092 842.987 304.115C790.365 346.976 739.851 367.996 687.725 369.033C637.137 370.04 592.079 351.918 551.635 331.581C533.39 322.407 515.601 312.643 497.701 302.819L497.7 302.819L497.699 302.818C433.096 267.362 367.057 231.118 272.987 218.934C251.218 216.114 237.72 220.03 227.932 225.506C217.084 231.575 206.7 241.885 195.205 258.016C187.158 269.311 180.626 280.245 173.183 292.702C169.099 299.54 164.74 306.836 159.706 314.903C147.193 334.953 130.767 359.087 107.835 377.137C76.9022 401.485 42.0323 404.809 12.1207 399.561C-16.2215 394.588 -42.349 381.696 -62.4348 370.216C-72.809 364.287 -82.517 358.168 -90.8614 352.838C-92.6164 351.716 -94.282 350.649 -95.8701 349.632L-95.9434 349.585L-95.9564 349.577C-102.278 345.527 -107.371 342.263 -111.994 339.504C-116.03 337.095 -118.149 336.037 -118.859 335.683L-118.86 335.682C-119.05 335.588 -119.138 335.543 -119.136 335.537C-119.133 335.531 -119.06 335.555 -118.922 335.6L-118.839 335.628C-118.814 335.636 -118.788 335.644 -118.761 335.653L-118.744 335.658C-118.014 335.894 -113.344 337.402 -106.388 336.975C-98.1631 336.47 -86.5905 333.115 -77.18 323.116L-150 254.58C-135.592 239.271 -118.558 236.489 -105.806 237.174L-150 195.58C-135.592 180.271 -118.558 177.489 -105.806 178.174L-150 136.58C-125.992 111.071 -94.6953 120.342 -88.0624 122.481C-77.6137 125.852 -67.6676 131.503 -60.742 135.636C-54.6149 139.293 -47.7883 143.67 -41.3423 147.802L-41.3414 147.803L-41.3381 147.805C-39.8773 148.741 -38.436 149.665 -37.0268 150.565C-28.9584 155.719 -20.9551 160.743 -12.8144 165.396C4.12941 175.08 18.2457 181.108 29.4016 183.065C38.9882 184.747 42.8707 183.01 45.9849 180.559C54.3693 173.959 63.1935 162.67 74.8703 143.959C77.7923 139.277 81.0838 133.784 84.6446 127.842C93.2507 113.479 103.429 96.4921 113.764 81.9877C129.345 60.1208 149.981 36.5307 179.107 20.2359C209.292 3.34835 244.719 -3.563 285.833 1.7622C400.626 16.6307 486.953 64.3389 552.666 100.656C568.45 109.379 583.045 117.444 596.56 124.24C633.054 142.591 660.152 151.562 685.736 151.053C709.782 150.575 739.454 141.47 779.833 108.581C884.775 23.1035 991.901 7.00803 1084.25 25.301C1174.24 43.1263 1247.17 92.816 1290.68 134.914C1327.54 170.58 1368.91 200.354 1405.05 209.594C1421.89 213.901 1435.29 213.167 1446.54 208.693C1457.73 204.243 1472 194.017 1486.93 169.971C1529.52 101.385 1595.3 81.6466 1653.88 84.1304C1709.91 86.5063 1762.43 108.695 1794.39 128.125L1767.33 172.624Z" fill="#071108"/>
</svg>
